<?xml version="1.0" encoding="UTF-8" standalone="no"?>
<!DOCTYPE svg PUBLIC "-//W3C//DTD SVG 1.1//EN"
 "http://www.w3.org/Graphics/SVG/1.1/DTD/svg11.dtd">
<!-- Generated by graphviz version 2.40.1 (20161225.0304)
 -->
<!-- Title: %3 Pages: 1 -->
<svg width="879pt" height="231pt"
 viewBox="0.00 0.00 879.24 231.00" xmlns="http://www.w3.org/2000/svg" xmlns:xlink="http://www.w3.org/1999/xlink">
<g id="graph0" class="graph" transform="scale(1 1) rotate(0) translate(4 227)">
<title>%3</title>
<polygon fill="#3f3f3f" stroke="transparent" points="-4,4 -4,-227 875.2385,-227 875.2385,4 -4,4"/>
<text text-anchor="middle" x="435.6192" y="-9.2" font-family="Times,serif" font-size="16.00" fill="#ffffff">Network Map</text>
<!-- R6 -->
<g id="node1" class="node">
<title>R6</title>
<polygon fill="#006699" stroke="#006699" points="94.2385,-223 18.2385,-223 18.2385,-150 94.2385,-150 94.2385,-223"/>
<text text-anchor="middle" x="56.2385" y="-182.8" font-family="Helvetica,sans-Serif" font-size="14.00" fill="#ffffff">R6</text>
</g>
<!-- R5 -->
<g id="node2" class="node">
<title>R5</title>
<polygon fill="#006699" stroke="#006699" points="340.2385,-223 264.2385,-223 264.2385,-150 340.2385,-150 340.2385,-223"/>
<text text-anchor="middle" x="302.2385" y="-182.8" font-family="Helvetica,sans-Serif" font-size="14.00" fill="#ffffff">R5</text>
</g>
<!-- R3 -->
<g id="node3" class="node">
<title>R3</title>
<polygon fill="#006699" stroke="#006699" points="709.2385,-99 633.2385,-99 633.2385,-26 709.2385,-26 709.2385,-99"/>
<text text-anchor="middle" x="671.2385" y="-58.8" font-family="Helvetica,sans-Serif" font-size="14.00" fill="#ffffff">R3</text>
</g>
<!-- SW1 -->
<g id="node4" class="node">
<title>SW1</title>
<polygon fill="#006699" stroke="#006699" points="653.7385,-223 564.7385,-223 564.7385,-150 653.7385,-150 653.7385,-223"/>
<text text-anchor="middle" x="609.2385" y="-182.8" font-family="Helvetica,sans-Serif" font-size="14.00" fill="#ffffff">SW1</text>
</g>
<!-- R3&#45;&#45;SW1 -->
<g id="edge5" class="edge">
<title>R3&#45;&#45;SW1</title>
<path fill="none" stroke="#00ff00" stroke-dasharray="5,2" d="M662.1003,-99.0999C658.7401,-109.9808 654.4529,-121.731 649.2385,-132 646.2095,-137.965 642.5464,-143.9756 638.6816,-149.7157"/>
<text text-anchor="middle" x="705.2385" y="-120.8" font-family="Courier,monospace" font-size="14.00" fill="#ffffff"> &#160;&#160;&#160;&#160;&#160;&#160;&#160;&#160;&#160;&#160;&#160;</text>
<text text-anchor="middle" x="609.6816" y="-138.5157" font-family="Courier,monospace" font-size="14.00" fill="#ffffff">Eth 0/3</text>
<text text-anchor="middle" x="633.1003" y="-102.8999" font-family="Courier,monospace" font-size="14.00" fill="#ffffff">Eth 0/0</text>
</g>
<!-- R1 -->
<g id="node5" class="node">
<title>R1</title>
<polygon fill="#006699" stroke="#006699" points="832.2385,-99 756.2385,-99 756.2385,-26 832.2385,-26 832.2385,-99"/>
<text text-anchor="middle" x="794.2385" y="-58.8" font-family="Helvetica,sans-Serif" font-size="14.00" fill="#ffffff">R1</text>
</g>
<!-- R1&#45;&#45;SW1 -->
<g id="edge1" class="edge">
<title>R1&#45;&#45;SW1</title>
<path fill="none" stroke="#00ff00" stroke-dasharray="5,2" d="M782.0092,-99.1945C776.5848,-110.9609 769.136,-123.2067 759.2385,-132 729.6184,-158.3156 686.2854,-172.2372 653.8017,-179.4"/>
<text text-anchor="middle" x="821.2385" y="-120.8" font-family="Courier,monospace" font-size="14.00" fill="#ffffff"> &#160;&#160;&#160;&#160;&#160;&#160;&#160;&#160;&#160;&#160;&#160;</text>
<text text-anchor="middle" x="682.8017" y="-168.2" font-family="Courier,monospace" font-size="14.00" fill="#ffffff">Eth 0/1</text>
<text text-anchor="middle" x="753.0092" y="-102.9945" font-family="Courier,monospace" font-size="14.00" fill="#ffffff">Eth 0/0</text>
</g>
<!-- R2 -->
<g id="node6" class="node">
<title>R2</title>
<polygon fill="#006699" stroke="#006699" points="217.2385,-99 141.2385,-99 141.2385,-26 217.2385,-26 217.2385,-99"/>
<text text-anchor="middle" x="179.2385" y="-58.8" font-family="Helvetica,sans-Serif" font-size="14.00" fill="#ffffff">R2</text>
</g>
<!-- R2&#45;&#45;R6 -->
<g id="edge4" class="edge">
<title>R2&#45;&#45;R6</title>
<path fill="none" stroke="#00ff00" stroke-dasharray="5,2" d="M141.0218,-72.5728C117.4478,-80.741 88.5132,-94.65 71.2385,-117 63.9916,-126.3759 60.0706,-138.4933 58,-149.9776"/>
<text text-anchor="middle" x="121.2385" y="-120.8" font-family="Courier,monospace" font-size="14.00" fill="#ffffff"> &#160;&#160;&#160;&#160;&#160;&#160;&#160;&#160;&#160;&#160;&#160;</text>
<text text-anchor="middle" x="29" y="-138.7776" font-family="Courier,monospace" font-size="14.00" fill="#ffffff">Eth 0/1</text>
<text text-anchor="middle" x="112.0218" y="-61.3728" font-family="Courier,monospace" font-size="14.00" fill="#ffffff">Eth 0/2</text>
</g>
<!-- R2&#45;&#45;R5 -->
<g id="edge3" class="edge">
<title>R2&#45;&#45;R5</title>
<path fill="none" stroke="#00ff00" stroke-dasharray="5,2" d="M172.4442,-99.0315C172.1681,-110.3879 173.9317,-122.4268 180.2385,-132 198.8072,-160.1862 235.6785,-173.9379 264.0491,-180.558"/>
<text text-anchor="middle" x="230.2385" y="-120.8" font-family="Courier,monospace" font-size="14.00" fill="#ffffff"> &#160;&#160;&#160;&#160;&#160;&#160;&#160;&#160;&#160;&#160;&#160;</text>
<text text-anchor="middle" x="235.0491" y="-169.358" font-family="Courier,monospace" font-size="14.00" fill="#ffffff">Eth 0/0</text>
<text text-anchor="middle" x="143.4442" y="-102.8315" font-family="Courier,monospace" font-size="14.00" fill="#ffffff">Eth 0/1</text>
</g>
<!-- R2&#45;&#45;SW1 -->
<g id="edge2" class="edge">
<title>R2&#45;&#45;SW1</title>
<path fill="none" stroke="#00ff00" stroke-dasharray="5,2" d="M217.5508,-81.1809C236.8183,-91.0698 260.2594,-103.8658 280.2385,-117 289.2286,-122.9101 289.4197,-127.6016 299.2385,-132 345.9913,-152.9436 490.5555,-172.4442 564.5725,-181.3805"/>
<text text-anchor="middle" x="349.2385" y="-120.8" font-family="Courier,monospace" font-size="14.00" fill="#ffffff"> &#160;&#160;&#160;&#160;&#160;&#160;&#160;&#160;&#160;&#160;&#160;</text>
<text text-anchor="middle" x="535.5725" y="-170.1805" font-family="Courier,monospace" font-size="14.00" fill="#ffffff">Eth 0/2</text>
<text text-anchor="middle" x="246.5508" y="-69.9809" font-family="Courier,monospace" font-size="14.00" fill="#ffffff">Eth 0/0</text>
</g>
<!-- R4 -->
<g id="node7" class="node">
<title>R4</title>
<polygon fill="#006699" stroke="#006699" points="524.2385,-99 448.2385,-99 448.2385,-26 524.2385,-26 524.2385,-99"/>
<text text-anchor="middle" x="486.2385" y="-58.8" font-family="Helvetica,sans-Serif" font-size="14.00" fill="#ffffff">R4</text>
</g>
<!-- R4&#45;&#45;R5 -->
<g id="edge7" class="edge">
<title>R4&#45;&#45;R5</title>
<path fill="none" stroke="#00ff00" stroke-dasharray="5,2" d="M447.8352,-97.4287C434.2176,-109.0536 418.4817,-121.6616 403.2385,-132 383.4507,-145.4206 360.0216,-158.2345 340.7128,-168.0616"/>
<text text-anchor="middle" x="472.2385" y="-120.8" font-family="Courier,monospace" font-size="14.00" fill="#ffffff"> &#160;&#160;&#160;&#160;&#160;&#160;&#160;&#160;&#160;&#160;&#160;</text>
<text text-anchor="middle" x="369.7128" y="-156.8616" font-family="Courier,monospace" font-size="14.00" fill="#ffffff">Eth 0/1</text>
<text text-anchor="middle" x="418.8352" y="-86.2287" font-family="Courier,monospace" font-size="14.00" fill="#ffffff">Eth 0/1</text>
</g>
<!-- R4&#45;&#45;SW1 -->
<g id="edge6" class="edge">
<title>R4&#45;&#45;SW1</title>
<path fill="none" stroke="#00ff00" stroke-dasharray="5,2" d="M515.4905,-99.1955C524.665,-110.0797 535.0618,-121.8078 545.2385,-132 551.3223,-138.0931 558.0012,-144.2725 564.6779,-150.1748"/>
<text text-anchor="middle" x="595.2385" y="-120.8" font-family="Courier,monospace" font-size="14.00" fill="#ffffff"> &#160;&#160;&#160;&#160;&#160;&#160;&#160;&#160;&#160;&#160;&#160;</text>
<text text-anchor="middle" x="535.6779" y="-138.9748" font-family="Courier,monospace" font-size="14.00" fill="#ffffff">Eth 0/4</text>
<text text-anchor="middle" x="486.4905" y="-102.9955" font-family="Courier,monospace" font-size="14.00" fill="#ffffff">Eth 0/0</text>
</g>
</g>
</svg>
