<?xml version="1.0" encoding="UTF-8" standalone="no"?>
<!DOCTYPE svg PUBLIC "-//W3C//DTD SVG 1.1//EN"
 "http://www.w3.org/Graphics/SVG/1.1/DTD/svg11.dtd">
<!-- Generated by graphviz version 2.40.1 (20161225.0304)
 -->
<!-- Title: %3 Pages: 1 -->
<svg width="526pt" height="355pt"
 viewBox="0.00 0.00 525.61 355.00" xmlns="http://www.w3.org/2000/svg" xmlns:xlink="http://www.w3.org/1999/xlink">
<g id="graph0" class="graph" transform="scale(1 1) rotate(0) translate(4 351)">
<title>%3</title>
<polygon fill="#333333" stroke="transparent" points="-4,4 -4,-351 521.6061,-351 521.6061,4 -4,4"/>
<text text-anchor="middle" x="258.803" y="-9.2" font-family="Times,serif" font-size="16.00" fill="#ffffff">Network Map</text>
<!-- R5 -->
<g id="node1" class="node">
<title>R5</title>
<polygon fill="#006699" stroke="#006699" points="148.6061,-347 72.6061,-347 72.6061,-274 148.6061,-274 148.6061,-347"/>
<text text-anchor="middle" x="110.6061" y="-306.8" font-family="Helvetica,sans-Serif" font-size="14.00" fill="#ffffff">R5</text>
</g>
<!-- R6 -->
<g id="node2" class="node">
<title>R6</title>
<polygon fill="#006699" stroke="#006699" points="86.6061,-223 10.6061,-223 10.6061,-150 86.6061,-150 86.6061,-223"/>
<text text-anchor="middle" x="48.6061" y="-182.8" font-family="Helvetica,sans-Serif" font-size="14.00" fill="#ffffff">R6</text>
</g>
<!-- SW2 -->
<g id="node3" class="node">
<title>SW2</title>
<polygon fill="#006699" stroke="#006699" points="462.1061,-347 373.1061,-347 373.1061,-274 462.1061,-274 462.1061,-347"/>
<text text-anchor="middle" x="417.6061" y="-306.8" font-family="Helvetica,sans-Serif" font-size="14.00" fill="#ffffff">SW2</text>
</g>
<!-- R3 -->
<g id="node4" class="node">
<title>R3</title>
<polygon fill="#006699" stroke="#006699" points="209.6061,-223 133.6061,-223 133.6061,-150 209.6061,-150 209.6061,-223"/>
<text text-anchor="middle" x="171.6061" y="-182.8" font-family="Helvetica,sans-Serif" font-size="14.00" fill="#ffffff">R3</text>
</g>
<!-- R3&#45;&#45;R5 -->
<g id="edge7" class="edge">
<title>R3&#45;&#45;R5</title>
<path fill="none" stroke="#00ff00" stroke-dasharray="5,2" d="M133.331,-212.6558C124.5994,-220.6538 116.4681,-230.2254 111.6061,-241 107.0398,-251.1193 105.6264,-262.9413 105.6894,-273.9353"/>
<text text-anchor="middle" x="161.6061" y="-244.8" font-family="Courier,monospace" font-size="14.00" fill="#ffffff"> &#160;&#160;&#160;&#160;&#160;&#160;&#160;&#160;&#160;&#160;&#160;</text>
<text text-anchor="middle" x="80.6894" y="-262.7353" font-family="Courier,monospace" font-size="14.00" fill="#ffffff">Eth0/0</text>
<text text-anchor="middle" x="108.331" y="-216.4558" font-family="Courier,monospace" font-size="14.00" fill="#ffffff">Eth0/2</text>
</g>
<!-- R4 -->
<g id="node7" class="node">
<title>R4</title>
<polygon fill="#006699" stroke="#006699" points="271.6061,-347 195.6061,-347 195.6061,-274 271.6061,-274 271.6061,-347"/>
<text text-anchor="middle" x="233.6061" y="-306.8" font-family="Helvetica,sans-Serif" font-size="14.00" fill="#ffffff">R4</text>
</g>
<!-- R3&#45;&#45;R4 -->
<g id="edge6" class="edge">
<title>R3&#45;&#45;R4</title>
<path fill="none" stroke="#00ff00" stroke-dasharray="5,2" d="M201.0493,-223.2843C204.914,-229.0244 208.5772,-235.035 211.6061,-241 216.8205,-251.269 221.1077,-263.0192 224.4679,-273.9001"/>
<text text-anchor="middle" x="268.6061" y="-244.8" font-family="Courier,monospace" font-size="14.00" fill="#ffffff"> &#160;&#160;&#160;&#160;&#160;&#160;&#160;&#160;&#160;&#160;&#160;</text>
<text text-anchor="middle" x="199.4679" y="-262.7001" font-family="Courier,monospace" font-size="14.00" fill="#ffffff">Eth0/0</text>
<text text-anchor="middle" x="176.0493" y="-227.0843" font-family="Courier,monospace" font-size="14.00" fill="#ffffff">Eth0/1</text>
</g>
<!-- SW1 -->
<g id="node5" class="node">
<title>SW1</title>
<polygon fill="#006699" stroke="#006699" points="277.1061,-99 188.1061,-99 188.1061,-26 277.1061,-26 277.1061,-99"/>
<text text-anchor="middle" x="232.6061" y="-58.8" font-family="Helvetica,sans-Serif" font-size="14.00" fill="#ffffff">SW1</text>
</g>
<!-- SW1&#45;&#45;R6 -->
<g id="edge4" class="edge">
<title>SW1&#45;&#45;R6</title>
<path fill="none" stroke="#00ff00" stroke-dasharray="5,2" d="M188.0742,-71.7407C144.2035,-81.7267 81.3843,-98.6869 64.6061,-117 56.4092,-125.9467 52.1433,-138.2285 50,-149.9809"/>
<text text-anchor="middle" x="114.6061" y="-120.8" font-family="Courier,monospace" font-size="14.00" fill="#ffffff"> &#160;&#160;&#160;&#160;&#160;&#160;&#160;&#160;&#160;&#160;&#160;</text>
<text text-anchor="middle" x="25" y="-138.7809" font-family="Courier,monospace" font-size="14.00" fill="#ffffff">Eth0/1</text>
<text text-anchor="middle" x="163.0742" y="-60.5407" font-family="Courier,monospace" font-size="14.00" fill="#ffffff">Eth0/5</text>
</g>
<!-- SW1&#45;&#45;R3 -->
<g id="edge3" class="edge">
<title>SW1&#45;&#45;R3</title>
<path fill="none" stroke="#00ff00" stroke-dasharray="5,2" d="M187.9366,-94.9436C181.7381,-101.5148 176.2526,-108.919 172.6061,-117 168.0398,-127.1193 166.6264,-138.9413 166.6894,-149.9353"/>
<text text-anchor="middle" x="222.6061" y="-120.8" font-family="Courier,monospace" font-size="14.00" fill="#ffffff"> &#160;&#160;&#160;&#160;&#160;&#160;&#160;&#160;&#160;&#160;&#160;</text>
<text text-anchor="middle" x="141.6894" y="-138.7353" font-family="Courier,monospace" font-size="14.00" fill="#ffffff">Eth0/0</text>
<text text-anchor="middle" x="162.9366" y="-83.7436" font-family="Courier,monospace" font-size="14.00" fill="#ffffff">Eth0/3</text>
</g>
<!-- R1 -->
<g id="node6" class="node">
<title>R1</title>
<polygon fill="#006699" stroke="#006699" points="332.6061,-223 256.6061,-223 256.6061,-150 332.6061,-150 332.6061,-223"/>
<text text-anchor="middle" x="294.6061" y="-182.8" font-family="Helvetica,sans-Serif" font-size="14.00" fill="#ffffff">R1</text>
</g>
<!-- SW1&#45;&#45;R1 -->
<g id="edge1" class="edge">
<title>SW1&#45;&#45;R1</title>
<path fill="none" stroke="#00ff00" stroke-dasharray="5,2" d="M262.0493,-99.2843C265.914,-105.0244 269.5772,-111.035 272.6061,-117 277.8205,-127.269 282.1077,-139.0192 285.4679,-149.9001"/>
<text text-anchor="middle" x="329.6061" y="-120.8" font-family="Courier,monospace" font-size="14.00" fill="#ffffff"> &#160;&#160;&#160;&#160;&#160;&#160;&#160;&#160;&#160;&#160;&#160;</text>
<text text-anchor="middle" x="260.4679" y="-138.7001" font-family="Courier,monospace" font-size="14.00" fill="#ffffff">Eth0/0</text>
<text text-anchor="middle" x="237.0493" y="-103.0843" font-family="Courier,monospace" font-size="14.00" fill="#ffffff">Eth0/1</text>
</g>
<!-- R2 -->
<g id="node8" class="node">
<title>R2</title>
<polygon fill="#006699" stroke="#006699" points="455.6061,-223 379.6061,-223 379.6061,-150 455.6061,-150 455.6061,-223"/>
<text text-anchor="middle" x="417.6061" y="-182.8" font-family="Helvetica,sans-Serif" font-size="14.00" fill="#ffffff">R2</text>
</g>
<!-- SW1&#45;&#45;R2 -->
<g id="edge2" class="edge">
<title>SW1&#45;&#45;R2</title>
<path fill="none" stroke="#00ff00" stroke-dasharray="5,2" d="M277.2098,-69.3536C309.992,-76.4054 353.8327,-90.2964 383.6061,-117 393.4058,-125.7893 400.6851,-138.0342 405.9377,-149.801"/>
<text text-anchor="middle" x="446.6061" y="-120.8" font-family="Courier,monospace" font-size="14.00" fill="#ffffff"> &#160;&#160;&#160;&#160;&#160;&#160;&#160;&#160;&#160;&#160;&#160;</text>
<text text-anchor="middle" x="380.9377" y="-138.601" font-family="Courier,monospace" font-size="14.00" fill="#ffffff">Eth0/0</text>
<text text-anchor="middle" x="302.2098" y="-58.1536" font-family="Courier,monospace" font-size="14.00" fill="#ffffff">Eth0/2</text>
</g>
<!-- R2&#45;&#45;SW2 -->
<g id="edge5" class="edge">
<title>R2&#45;&#45;SW2</title>
<path fill="none" stroke="#00ff00" stroke-dasharray="5,2" d="M417.6061,-223.0334C417.6061,-239.0358 417.6061,-257.7778 417.6061,-273.7992"/>
<text text-anchor="middle" x="467.6061" y="-244.8" font-family="Courier,monospace" font-size="14.00" fill="#ffffff"> &#160;&#160;&#160;&#160;&#160;&#160;&#160;&#160;&#160;&#160;&#160;</text>
<text text-anchor="middle" x="388.6061" y="-262.5992" font-family="Courier,monospace" font-size="14.00" fill="#ffffff">Eth0/11</text>
<text text-anchor="middle" x="392.6061" y="-226.8334" font-family="Courier,monospace" font-size="14.00" fill="#ffffff">Eth0/1</text>
</g>
</g>
</svg>
